<mxfile host="app.diagrams.net" agent="Mozilla/5.0 (X11; Ubuntu; Linux x86_64; rv:134.0) Gecko/20100101 Firefox/134.0" version="26.0.9">
  <diagram name="Page-1" id="ayzPUYbJkj_Swsx3e4Tv">
    <mxGraphModel dx="1044" dy="915" grid="1" gridSize="10" guides="1" tooltips="1" connect="1" arrows="1" fold="1" page="1" pageScale="1" pageWidth="850" pageHeight="1100" math="0" shadow="0">
      <root>
        <mxCell id="0" />
        <mxCell id="1" parent="0" />
        <mxCell id="_ekJJQvrTF3OpdPK7Aye-28" value="" style="edgeStyle=orthogonalEdgeStyle;rounded=0;orthogonalLoop=1;jettySize=auto;html=1;" edge="1" parent="1" source="_ekJJQvrTF3OpdPK7Aye-1" target="_ekJJQvrTF3OpdPK7Aye-2">
          <mxGeometry relative="1" as="geometry" />
        </mxCell>
        <mxCell id="_ekJJQvrTF3OpdPK7Aye-1" value="START" style="ellipse;whiteSpace=wrap;html=1;" vertex="1" parent="1">
          <mxGeometry x="365" y="40" width="120" height="80" as="geometry" />
        </mxCell>
        <mxCell id="_ekJJQvrTF3OpdPK7Aye-27" value="" style="edgeStyle=orthogonalEdgeStyle;rounded=0;orthogonalLoop=1;jettySize=auto;html=1;entryX=0.5;entryY=0;entryDx=0;entryDy=0;" edge="1" parent="1" source="_ekJJQvrTF3OpdPK7Aye-2" target="_ekJJQvrTF3OpdPK7Aye-7">
          <mxGeometry relative="1" as="geometry">
            <mxPoint x="420" y="260" as="targetPoint" />
          </mxGeometry>
        </mxCell>
        <mxCell id="_ekJJQvrTF3OpdPK7Aye-2" value="Read x, y, z " style="shape=parallelogram;perimeter=parallelogramPerimeter;whiteSpace=wrap;html=1;fixedSize=1;" vertex="1" parent="1">
          <mxGeometry x="360" y="160" width="120" height="60" as="geometry" />
        </mxCell>
        <mxCell id="_ekJJQvrTF3OpdPK7Aye-21" value="" style="edgeStyle=orthogonalEdgeStyle;rounded=0;orthogonalLoop=1;jettySize=auto;html=1;" edge="1" parent="1" source="_ekJJQvrTF3OpdPK7Aye-3">
          <mxGeometry relative="1" as="geometry">
            <mxPoint x="420" y="740" as="targetPoint" />
          </mxGeometry>
        </mxCell>
        <mxCell id="_ekJJQvrTF3OpdPK7Aye-22" value="TRUE" style="edgeLabel;html=1;align=center;verticalAlign=middle;resizable=0;points=[];" vertex="1" connectable="0" parent="_ekJJQvrTF3OpdPK7Aye-21">
          <mxGeometry x="-0.2889" y="2" relative="1" as="geometry">
            <mxPoint as="offset" />
          </mxGeometry>
        </mxCell>
        <mxCell id="_ekJJQvrTF3OpdPK7Aye-24" value="" style="edgeStyle=orthogonalEdgeStyle;rounded=0;orthogonalLoop=1;jettySize=auto;html=1;" edge="1" parent="1" source="_ekJJQvrTF3OpdPK7Aye-3" target="_ekJJQvrTF3OpdPK7Aye-20">
          <mxGeometry relative="1" as="geometry" />
        </mxCell>
        <mxCell id="_ekJJQvrTF3OpdPK7Aye-3" value="&lt;div&gt;&lt;br&gt;&lt;/div&gt;&lt;div&gt;(x+y+z)%2==0&lt;/div&gt;&lt;div&gt;AND&lt;/div&gt;&lt;div&gt;x %3 == 0&lt;br&gt;&lt;/div&gt;&lt;div&gt;AND&lt;/div&gt;&lt;div&gt;y %5==0&lt;br&gt;&lt;/div&gt;&lt;div&gt;AND&lt;/div&gt;&lt;div&gt;z % 7==0&lt;br&gt;&lt;/div&gt;" style="rhombus;whiteSpace=wrap;html=1;" vertex="1" parent="1">
          <mxGeometry x="295" y="490" width="235" height="190" as="geometry" />
        </mxCell>
        <mxCell id="_ekJJQvrTF3OpdPK7Aye-11" value="" style="edgeStyle=orthogonalEdgeStyle;rounded=0;orthogonalLoop=1;jettySize=auto;html=1;" edge="1" parent="1" source="_ekJJQvrTF3OpdPK7Aye-7" target="_ekJJQvrTF3OpdPK7Aye-3">
          <mxGeometry relative="1" as="geometry" />
        </mxCell>
        <mxCell id="_ekJJQvrTF3OpdPK7Aye-12" value="TRUE" style="edgeLabel;html=1;align=center;verticalAlign=middle;resizable=0;points=[];" vertex="1" connectable="0" parent="_ekJJQvrTF3OpdPK7Aye-11">
          <mxGeometry x="0.2" relative="1" as="geometry">
            <mxPoint as="offset" />
          </mxGeometry>
        </mxCell>
        <mxCell id="_ekJJQvrTF3OpdPK7Aye-35" style="edgeStyle=orthogonalEdgeStyle;rounded=0;orthogonalLoop=1;jettySize=auto;html=1;" edge="1" parent="1" source="_ekJJQvrTF3OpdPK7Aye-7">
          <mxGeometry relative="1" as="geometry">
            <mxPoint x="140" y="540" as="targetPoint" />
          </mxGeometry>
        </mxCell>
        <mxCell id="_ekJJQvrTF3OpdPK7Aye-36" value="FALSE" style="edgeLabel;html=1;align=center;verticalAlign=middle;resizable=0;points=[];" vertex="1" connectable="0" parent="_ekJJQvrTF3OpdPK7Aye-35">
          <mxGeometry x="-0.5391" y="-4" relative="1" as="geometry">
            <mxPoint as="offset" />
          </mxGeometry>
        </mxCell>
        <mxCell id="_ekJJQvrTF3OpdPK7Aye-7" value="&lt;div&gt;x%1 ==0&lt;/div&gt;&lt;div&gt;AND &lt;br&gt;&lt;/div&gt;&lt;div&gt;y%1==0&lt;/div&gt;&lt;div&gt;AND&lt;/div&gt;&lt;div&gt;z%1==0&lt;br&gt;&lt;/div&gt;" style="rhombus;whiteSpace=wrap;html=1;" vertex="1" parent="1">
          <mxGeometry x="365" y="360" width="80" height="80" as="geometry" />
        </mxCell>
        <mxCell id="_ekJJQvrTF3OpdPK7Aye-42" style="edgeStyle=orthogonalEdgeStyle;rounded=0;orthogonalLoop=1;jettySize=auto;html=1;entryX=0.5;entryY=0;entryDx=0;entryDy=0;" edge="1" parent="1" source="_ekJJQvrTF3OpdPK7Aye-20" target="_ekJJQvrTF3OpdPK7Aye-39">
          <mxGeometry relative="1" as="geometry" />
        </mxCell>
        <mxCell id="_ekJJQvrTF3OpdPK7Aye-20" value="Write &quot;regole non rispettate&quot;" style="shape=parallelogram;perimeter=parallelogramPerimeter;whiteSpace=wrap;html=1;fixedSize=1;" vertex="1" parent="1">
          <mxGeometry x="70" y="555" width="120" height="60" as="geometry" />
        </mxCell>
        <mxCell id="_ekJJQvrTF3OpdPK7Aye-25" value="FALSE" style="text;html=1;align=center;verticalAlign=middle;resizable=0;points=[];autosize=1;strokeColor=none;fillColor=none;" vertex="1" parent="1">
          <mxGeometry x="230" y="568" width="60" height="30" as="geometry" />
        </mxCell>
        <mxCell id="_ekJJQvrTF3OpdPK7Aye-33" value="END" style="ellipse;whiteSpace=wrap;html=1;" vertex="1" parent="1">
          <mxGeometry x="70" y="850" width="120" height="80" as="geometry" />
        </mxCell>
        <mxCell id="_ekJJQvrTF3OpdPK7Aye-38" style="edgeStyle=orthogonalEdgeStyle;rounded=0;orthogonalLoop=1;jettySize=auto;html=1;" edge="1" parent="1" source="_ekJJQvrTF3OpdPK7Aye-37" target="_ekJJQvrTF3OpdPK7Aye-39">
          <mxGeometry relative="1" as="geometry">
            <mxPoint x="130" y="790" as="targetPoint" />
          </mxGeometry>
        </mxCell>
        <mxCell id="_ekJJQvrTF3OpdPK7Aye-37" value="Write &quot;regole rispettate&quot;" style="shape=parallelogram;perimeter=parallelogramPerimeter;whiteSpace=wrap;html=1;fixedSize=1;" vertex="1" parent="1">
          <mxGeometry x="352.5" y="760" width="120" height="60" as="geometry" />
        </mxCell>
        <mxCell id="_ekJJQvrTF3OpdPK7Aye-43" value="" style="edgeStyle=orthogonalEdgeStyle;rounded=0;orthogonalLoop=1;jettySize=auto;html=1;" edge="1" parent="1" source="_ekJJQvrTF3OpdPK7Aye-39" target="_ekJJQvrTF3OpdPK7Aye-33">
          <mxGeometry relative="1" as="geometry" />
        </mxCell>
        <mxCell id="_ekJJQvrTF3OpdPK7Aye-39" value="" style="ellipse;whiteSpace=wrap;html=1;aspect=fixed;" vertex="1" parent="1">
          <mxGeometry x="100" y="780" width="30" height="30" as="geometry" />
        </mxCell>
      </root>
    </mxGraphModel>
  </diagram>
</mxfile>
